<svg id="portrait" xmlns="http://www.w3.org/2000/svg" width="18.333" height="18.333" viewBox="0 0 18.333 18.333">
  <path id="Path_1865" data-name="Path 1865" d="M14.514,0H3.819A3.824,3.824,0,0,0,0,3.819V14.514a3.824,3.824,0,0,0,3.819,3.819H14.514a3.824,3.824,0,0,0,3.819-3.819V3.819A3.824,3.824,0,0,0,14.514,0ZM5.347,16.806v-.764a3.819,3.819,0,0,1,7.639,0v.764Zm11.458-2.292a2.292,2.292,0,0,1-2.292,2.292v-.764a5.347,5.347,0,0,0-10.695,0v.764a2.292,2.292,0,0,1-2.292-2.292V3.819A2.292,2.292,0,0,1,3.819,1.528H14.514a2.292,2.292,0,0,1,2.292,2.292Z" fill="#FFFFFF"/>
  <path id="Path_1866" data-name="Path 1866" d="M10.792,4a2.792,2.792,0,1,0,2.792,2.792A2.792,2.792,0,0,0,10.792,4Zm0,4.188a1.4,1.4,0,1,1,1.4-1.4A1.4,1.4,0,0,1,10.792,8.188Z" transform="translate(-1.625 -0.812)" fill="#FFFFFF"/>
</svg>
