<!-- icon666.com - MILLIONS vector ICONS FREE --><svg xmlns="http://www.w3.org/2000/svg" id="outline" viewBox="0 0 64 64"><path d="M31,38H15a1,1,0,0,0-1,1V51a1,1,0,0,0,1,1H31a1,1,0,0,0,1-1V39A1,1,0,0,0,31,38ZM16,50V40h6v4H21a1,1,0,0,0,0,2h1v4Zm14,0H24V46h1a1,1,0,0,0,0-2H24V40h6Z" fill="#000000" style="fill: rgb(255, 255, 255);"></path><path d="M62,30a1.211,1.211,0,0,1-.047-.3L55.805,10.344A4.487,4.487,0,0,0,53.5,2h-43a4.487,4.487,0,0,0-2.305,8.344L2.047,29.7a.94.94,0,0,0-.008.11A.953.953,0,0,0,2,30a7.985,7.985,0,0,0,3,6.235V61a1,1,0,0,0,1,1H58a1,1,0,0,0,1-1V36.235A7.985,7.985,0,0,0,62,30Zm-8,6a6.01,6.01,0,0,1-5.917-5H59.917A6.01,6.01,0,0,1,54,36ZM26,11V29H18V11Zm10,0V29H28V11Zm10,0V29H38V11ZM25.873,31a4,4,0,0,1-7.746,0Zm10,0a4,4,0,0,1-7.746,0Zm10,0a4,4,0,0,1-7.746,0Zm13.76-2H48V11h5.5c.138,0,.268-.028.4-.041ZM10.5,4h43a2.5,2.5,0,0,1,0,5h-43a2.5,2.5,0,0,1,0-5Zm-.4,6.959c.135.012.265.041.4.041H16V29H4.367ZM4.083,31H15.917A6,6,0,0,1,4.083,31ZM41,60V56h2a1,1,0,0,0,0-2H41V45h8V60Zm16,0H51V44a1,1,0,0,0-1-1H40a1,1,0,0,0-1,1V60H7V37.411a7.971,7.971,0,0,0,10.165-3.874A5.985,5.985,0,0,0,27,33.31a5.991,5.991,0,0,0,10,0,5.985,5.985,0,0,0,9.835.228A7.971,7.971,0,0,0,57,37.411Z" fill="#000000" style="fill: rgb(255, 255, 255);"></path></svg>