<svg xmlns="http://www.w3.org/2000/svg" width="24" height="24" viewBox="0 0 24 24">
  <g id="home-2" transform="translate(-620 -188)">
    <g id="Vector" transform="translate(621.99 190.002)" fill="none">
      <path d="M18.05,4.818,12.29.788A4.853,4.853,0,0,0,6.8.918L1.79,4.828A5.153,5.153,0,0,0,0,8.468v6.9A4.631,4.631,0,0,0,4.62,20H15.4a4.622,4.622,0,0,0,4.62-4.62V8.6A5.1,5.1,0,0,0,18.05,4.818ZM10.76,16a.75.75,0,0,1-1.5,0V13a.75.75,0,0,1,1.5,0Z" stroke="none"/>
      <path d="M 9.646349906921387 0 L 9.646349906921387 1.5 C 8.917081832885742 1.5 8.215193748474121 1.719499588012695 7.720321655273438 2.102228164672852 L 2.712551116943359 6.010490417480469 C 2.077939987182617 6.50547981262207 1.5 7.676699638366699 1.5 8.467740058898926 L 1.5 15.36774063110352 C 1.5 17.09362983703613 2.899629592895508 18.49773979187012 4.619999885559082 18.49773979187012 L 15.39999961853027 18.49773979187012 C 17.12037086486816 18.49773979187012 18.52000045776367 17.09811019897461 18.52000045776367 15.37773990631104 L 18.52000045776367 8.597740173339844 C 18.52000045776367 7.734740257263184 17.89841079711914 6.542610168457031 17.19009017944336 6.04679012298584 L 11.42928028106689 2.016220092773438 C 10.95417976379395 1.683340072631836 10.32101058959961 1.500009536743164 9.646420478820801 1.5 L 9.646349906921387 0 M 10.01000022888184 18.24773979187012 C 8.769350051879883 18.24773979187012 7.760000228881836 17.23838996887207 7.760000228881836 15.99773979187012 L 7.760000228881836 12.99773979187012 C 7.760000228881836 11.75708961486816 8.769350051879883 10.74773979187012 10.01000022888184 10.74773979187012 C 11.25065040588379 10.74773979187012 12.26000022888184 11.75708961486816 12.26000022888184 12.99773979187012 L 12.26000022888184 15.99773979187012 C 12.26000022888184 17.23838996887207 11.25065040588379 18.24773979187012 10.01000022888184 18.24773979187012 M 9.646448135375977 0 C 10.5928373336792 2.09808349609375e-05 11.53786849975586 0.2607688903808594 12.29000091552734 0.7877407073974609 L 18.04999923706055 4.817740440368652 C 19.14999961853027 5.587739944458008 20.02000045776367 7.247739791870117 20.02000045776367 8.597740173339844 L 20.02000045776367 15.37773990631104 C 20.02000045776367 17.9277400970459 17.95000076293945 19.99773979187012 15.39999961853027 19.99773979187012 L 4.619999885559082 19.99773979187012 C 2.069999694824219 19.99773979187012 0 17.91773986816406 0 15.36774063110352 L 0 8.467740058898926 C 0 7.20773983001709 0.7900009155273438 5.60774040222168 1.790000915527344 4.827739715576172 L 6.800000190734863 0.9177398681640625 C 7.586611747741699 0.3082466125488281 8.617343902587891 -2.288818359375e-05 9.646448135375977 0 Z M 10.01000022888184 16.74773979187012 C 10.42000007629395 16.74773979187012 10.76000022888184 16.40773963928223 10.76000022888184 15.99773979187012 L 10.76000022888184 12.99773979187012 C 10.76000022888184 12.58773994445801 10.42000007629395 12.24773979187012 10.01000022888184 12.24773979187012 C 9.600000381469727 12.24773979187012 9.260000228881836 12.58773994445801 9.260000228881836 12.99773979187012 L 9.260000228881836 15.99773979187012 C 9.260000228881836 16.40773963928223 9.600000381469727 16.74773979187012 10.01000022888184 16.74773979187012 Z" stroke="none" fill="#fff"/>
    </g>
    <g id="Vector-2" data-name="Vector" transform="translate(644 212) rotate(180)" fill="none" opacity="0">
      <path d="M0,0H24V24H0Z" stroke="none"/>
      <path d="M 1.5 1.5 L 1.5 22.5 L 22.5 22.5 L 22.5 1.5 L 1.5 1.5 M 0 0 L 24 0 L 24 24 L 0 24 L 0 0 Z" stroke="none" fill="#fff"/>
    </g>
  </g>
</svg>
