<svg xmlns="http://www.w3.org/2000/svg" width="17.328" height="20.5" viewBox="0 0 17.328 20.5">
  <g id="logout" transform="translate(-2.47 -0.005)" opacity="1.0">
    <path id="Path_1829" data-name="Path 1829" d="M25.063,14.719a.737.737,0,0,0-.154-.788l-2.05-2.05A.72.72,0,0,0,21.842,12.9l.807.807H17.986a.721.721,0,0,0,0,1.441h4.669l-.807.807a.729.729,0,1,0,1.012,1.05L24.9,14.969a.717.717,0,0,0,.167-.25Z" transform="translate(-5.318 -4.194)" fill="#ffffff"/>
    <path id="Path_1830" data-name="Path 1830" d="M14.723,13.088a.717.717,0,0,0-.717.717v2.927a.724.724,0,0,1-.717.717H10.406V3.044h2.882a.724.724,0,0,1,.717.717V6.6a.721.721,0,0,0,1.441,0V3.768a2.165,2.165,0,0,0-2.159-2.159H10.323A2.152,2.152,0,0,0,7.556.117L3.95,1.315a2.159,2.159,0,0,0-1.48,2.05V17.136a2.159,2.159,0,0,0,1.48,2.05l3.6,1.2A2.141,2.141,0,0,0,10.316,18.9h2.959a2.165,2.165,0,0,0,2.159-2.159V13.811a.717.717,0,0,0-.711-.724ZM8.958,18.334a.724.724,0,0,1-.948.685l-3.6-1.2a.724.724,0,0,1-.493-.685V3.364a.724.724,0,0,1,.493-.679l3.6-1.2a.724.724,0,0,1,.948.685Z" transform="translate(0)" fill="#ffffff"/>
  </g>
</svg>
