<svg xmlns="http://www.w3.org/2000/svg" width="22.868" height="21.967" viewBox="0 0 22.868 21.967">
  <g id="offer" transform="translate(-7.129 -8.718)">
    <g id="Group_10217" data-name="Group 10217" transform="translate(7.442 8.984)">
      <path id="Path_1948" data-name="Path 1948" d="M28.506,17.321a1.823,1.823,0,0,1-.5-1.536l.073-.517a2.871,2.871,0,0,0-2.357-3.245l-.515-.091a1.828,1.828,0,0,1-1.307-.949l-.246-.46a2.87,2.87,0,0,0-3.815-1.239l-.47.227a1.827,1.827,0,0,1-1.615,0l-.468-.23a2.873,2.873,0,0,0-3.815,1.239l-.246.46a1.826,1.826,0,0,1-1.307.949l-.515.091a2.871,2.871,0,0,0-2.357,3.245l.073.517a1.823,1.823,0,0,1-.5,1.536l-.363.374a2.869,2.869,0,0,0,0,4.011l.363.376a1.823,1.823,0,0,1,.5,1.536l-.073.517a2.871,2.871,0,0,0,2.357,3.245l.515.091a1.828,1.828,0,0,1,1.307.949l.246.46a2.871,2.871,0,0,0,3.815,1.239l.468-.225a1.827,1.827,0,0,1,1.615,0l.468.23a2.873,2.873,0,0,0,3.815-1.239l.246-.46a1.826,1.826,0,0,1,1.307-.949l.515-.091a2.871,2.871,0,0,0,2.357-3.245L28,23.621a1.823,1.823,0,0,1,.5-1.536l.363-.374a2.869,2.869,0,0,0,0-4.011Zm-.389,3.661-.363.374a2.87,2.87,0,0,0-.784,2.409l.073.517a1.831,1.831,0,0,1-1.5,2.07l-.515.091a2.858,2.858,0,0,0-2.049,1.489l-.246.46a1.833,1.833,0,0,1-2.433.792l-.468-.23a2.862,2.862,0,0,0-2.535,0l-.468.23a1.83,1.83,0,0,1-2.433-.792l-.246-.46A2.868,2.868,0,0,0,12.1,26.443l-.515-.091a1.831,1.831,0,0,1-1.5-2.07l.073-.517a2.859,2.859,0,0,0-.784-2.409l-.363-.376a1.83,1.83,0,0,1,0-2.558l.363-.374a2.87,2.87,0,0,0,.784-2.409l-.073-.517a1.831,1.831,0,0,1,1.5-2.07l.515-.091A2.858,2.858,0,0,0,14.15,11.47l.246-.46a1.83,1.83,0,0,1,1.62-.98,1.856,1.856,0,0,1,.813.188l.468.23a2.862,2.862,0,0,0,2.535,0l.468-.23a1.83,1.83,0,0,1,2.433.792l.246.46a2.868,2.868,0,0,0,2.049,1.489l.515.091a1.831,1.831,0,0,1,1.5,2.07l-.073.517a2.859,2.859,0,0,0,.784,2.409l.363.376a1.83,1.83,0,0,1,0,2.558Z" transform="translate(-7.442 -8.984)" fill="#b4deca" stroke="#b4deca" stroke-width="0.3"/>
      <path id="Path_1949" data-name="Path 1949" d="M41.973,33.658a.524.524,0,0,0-.739,0l-7.575,7.575a.522.522,0,1,0,.737.739L41.97,34.4a.521.521,0,0,0,0-.739Z" transform="translate(-26.695 -27.097)" fill="#b4deca" stroke="#b4deca" stroke-width="0.3"/>
      <path id="Path_1950" data-name="Path 1950" d="M35.591,32.158a2.221,2.221,0,1,0-1.57-.651A2.212,2.212,0,0,0,35.591,32.158Zm-.831-3.052a1.173,1.173,0,1,1-.345.831A1.171,1.171,0,0,1,34.76,29.106Z" transform="translate(-26.595 -22.822)" fill="#b4deca" stroke="#b4deca" stroke-width="0.3"/>
      <path id="Path_1951" data-name="Path 1951" d="M50.286,55.941a2.221,2.221,0,1,0,3.792,1.57,2.221,2.221,0,0,0-3.792-1.57Zm2.4,2.4a1.173,1.173,0,1,1,.345-.831A1.178,1.178,0,0,1,52.688,58.342Z" transform="translate(-38.612 -43.19)" fill="#b4deca" stroke="#b4deca" stroke-width="0.3"/>
    </g>
  </g>
</svg>
