<svg xmlns="http://www.w3.org/2000/svg" width="15.975" height="20.333" viewBox="0 0 15.975 20.333">
  <g id="order" transform="translate(-47.037 0)">
    <g id="Group_10308" data-name="Group 10308" transform="translate(47.037 0)">
      <g id="Group_10307" data-name="Group 10307">
        <g id="Group_10306" data-name="Group 10306">
          <path id="Path_2104" data-name="Path 2104" d="M60.979,2.664h-1.84V1.841c0-.266-.29-.387-.557-.387H57.155A2.165,2.165,0,0,0,55,0a2.2,2.2,0,0,0-2.154,1.452h-1.4c-.266,0-.533.121-.533.387v.823H49.07a2.057,2.057,0,0,0-2.033,1.961V18.494a1.947,1.947,0,0,0,2.033,1.84H60.979a1.947,1.947,0,0,0,2.033-1.84V4.625A2.057,2.057,0,0,0,60.979,2.664Zm-9.1-.242h1.331a.533.533,0,0,0,.46-.436A1.4,1.4,0,0,1,55,.9a1.38,1.38,0,0,1,1.307,1.089.532.532,0,0,0,.484.436h1.38V4.359H51.878ZM62.044,18.494a.982.982,0,0,1-1.065.871H49.07a.982.982,0,0,1-1.065-.871V4.625a1.089,1.089,0,0,1,1.065-.992h1.84V4.867a.508.508,0,0,0,.533.46h7.14a.532.532,0,0,0,.557-.46V3.632h1.84a1.089,1.089,0,0,1,1.065.992V18.494Z" transform="translate(-47.037 0)" fill="#b4deca"/>
          <path id="Path_2105" data-name="Path 2105" d="M102.4,230.438l-1.549,1.476-.654-.678a.484.484,0,0,0-.678-.024.508.508,0,0,0,0,.7l.992,1.017a.436.436,0,0,0,.339.145.484.484,0,0,0,.339-.145l1.888-1.791.028-.028a.46.46,0,0,0-.028-.65A.484.484,0,0,0,102.4,230.438Z" transform="translate(-96.956 -219.641)" fill="#b4deca"/>
          <path id="Path_2106" data-name="Path 2106" d="M204.6,256.034h-5.567a.484.484,0,0,0,0,.968H204.6a.484.484,0,0,0,0-.968Z" transform="translate(-191.529 -244.172)" fill="#b4deca"/>
          <path id="Path_2107" data-name="Path 2107" d="M204.6,172.442h-5.567a.484.484,0,0,0,0,.968H204.6a.484.484,0,0,0,0-.968Z" transform="translate(-191.529 -164.453)" fill="#b4deca"/>
          <path id="Path_2108" data-name="Path 2108" d="M102.4,314.03l-1.549,1.476-.654-.678a.484.484,0,0,0-.678-.024.508.508,0,0,0,0,.7l.992,1.017a.436.436,0,0,0,.339.145.484.484,0,0,0,.339-.145l1.888-1.791.028-.028a.46.46,0,0,0-.028-.65A.484.484,0,0,0,102.4,314.03Z" transform="translate(-96.956 -299.36)" fill="#b4deca"/>
          <path id="Path_2109" data-name="Path 2109" d="M204.6,339.626h-5.567a.484.484,0,0,0,0,.968H204.6a.484.484,0,0,0,0-.968Z" transform="translate(-191.529 -323.891)" fill="#b4deca"/>
          <path id="Path_2110" data-name="Path 2110" d="M97.662,146.767h2.93a.46.46,0,0,0,.434-.484v-2.614a.484.484,0,0,0-.484-.484h-2.88a.484.484,0,0,0-.484.484v2.614a.467.467,0,0,0,0,.05A.46.46,0,0,0,97.662,146.767Zm.484-2.614h1.912V145.8H98.147Z" transform="translate(-94.855 -136.551)" fill="#b4deca"/>
        </g>
      </g>
    </g>
  </g>
</svg>
