<svg id="point" xmlns="http://www.w3.org/2000/svg" width="28.6" height="28.6" viewBox="0 0 28.6 28.6">
  <g id="Group_10304" data-name="Group 10304">
    <path id="Path_2101" data-name="Path 2101" d="M136.612,125.063l-1.775-3.6a.838.838,0,0,0-1.5,0l-1.775,3.6-3.969.577a.838.838,0,0,0-.464,1.429l2.872,2.8-.678,3.953a.838.838,0,0,0,1.216.883l3.55-1.866,3.55,1.866a.838.838,0,0,0,1.216-.883l-.678-3.953,2.872-2.8a.838.838,0,0,0-.464-1.429Zm.076,3.913a.838.838,0,0,0-.241.742l.465,2.714-2.437-1.281a.838.838,0,0,0-.78,0l-2.437,1.281.465-2.714a.838.838,0,0,0-.241-.742l-1.972-1.922,2.725-.4a.838.838,0,0,0,.631-.458l1.219-2.469L135.3,126.2a.838.838,0,0,0,.631.458l2.725.4Z" transform="translate(-119.785 -114.24)" fill="#b4deca"/>
    <path id="Path_2102" data-name="Path 2102" d="M14.3,0A14.3,14.3,0,1,0,28.6,14.3,14.331,14.331,0,0,0,14.3,0Zm0,26.924A12.624,12.624,0,1,1,26.924,14.3,12.639,12.639,0,0,1,14.3,26.924Z" fill="none"/>
    <path id="Path_2103" data-name="Path 2103" d="M70.948,60A10.948,10.948,0,1,0,81.9,70.948,10.992,10.992,0,0,0,70.948,60Zm0,20.221a9.273,9.273,0,1,1,9.273-9.273A9.283,9.283,0,0,1,70.948,80.221Z" transform="translate(-56.648 -56.648)" fill="#b4deca"/>
  </g>
</svg>
