<!-- icon666.com - MILLIONS vector ICONS FREE --><svg id="Layer_1" enable-background="new 0 0 70 70" viewBox="0 0 70 70" xmlns="http://www.w3.org/2000/svg"><g id="Bonus_Point"><g><path d="m38.4513817 37.5139084c8.5900879 0 15.5800781-6.9902325 15.5800781-15.5800762s-6.9899902-15.5800786-15.5800781-15.5800786c-8.5898438 0-15.5898438 6.9902339-15.5898438 15.5800781s7 15.5800767 15.5898438 15.5800767zm0-29.1601553c7.4902344 0 13.5800781 6.0898438 13.5800781 13.5800791s-6.0898438 13.5800762-13.5800781 13.5800762c-7.4897461 0-13.5898438-6.0898418-13.5898438-13.5800762s6.1000977-13.5800791 13.5898438-13.5800791z" fill="#000000" style="fill: rgb(255, 255, 255);"></path><path d="m38.4513817 32.823967c6 0 10.880127-4.8803692 10.880127-10.8901348 0-6.000001-4.880127-10.8901377-10.880127-10.8901377s-10.8898926 4.8901367-10.8898926 10.8901377c0 6.0097656 4.8898926 10.8901348 10.8898926 10.8901348zm-4.6599121-12.8203106 2.1599121-.3198242c.300293-.0400391.5600586-.2299805.7001953-.5097656l.9599609-1.9501953c.3398438-.6899414 1.3300781-.6899414 1.6699219 0l.9599609 1.9501953c.1401367.2797852.4001465.4697266.7001953.5097656l2.1599121.3198242c.7600098.1103516 1.0600586 1.0400391.5100098 1.5800781l-1.5600586 1.5200195c-.2199707.2099609-.3198242.5200195-.2600098.8203125l.3601074 2.1499023c.1298828.7597656-.6601563 1.3398438-1.3400879.9799805l-1.9299316-1.0200195c-.2700195-.1401367-.6000977-.1401367-.8701172 0l-1.9299316 1.0200195c-.6799316.3598633-1.4699707-.2202148-1.3400879-.9799805l.3701172-2.1499023c.0500488-.300293-.0500488-.6103516-.2700195-.8203125l-1.5600586-1.5200195c-.5498047-.5400391-.25-1.4697266.5100098-1.5800781z" fill="#000000" style="fill: rgb(255, 255, 255);"></path><path d="m20.2013817 10.1184015c.3652687.4113789.9966698.4516335 1.4116211.0834961.4130859-.3666992.4501953-.9985352.0834961-1.4116211l-1.2250977-1.3798823c-.3657227-.4121094-.9980469-.4501953-1.4116211-.0839844-.4130859.3671875-.4501953.999023-.0834961 1.4121089z" fill="#000000" style="fill: rgb(255, 255, 255);"></path><path d="m24.8322411 6.9269958c.5458984-.0820313.9223633-.5908203.840332-1.1367188l-.2734375-1.8247073c-.081543-.5463867-.5917969-.9238281-1.137207-.8408203-.5458984.0820313-.9223633.5913086-.840332 1.1372073l.2734375 1.8242188c.0825748.5519399.5986213.9244837 1.137207.8408203z" fill="#000000" style="fill: rgb(255, 255, 255);"></path><path d="m14.9718895 13.2228937 1.7792969.487793c.5257435.1452332 1.0814152-.1626015 1.2285156-.7001953.1459961-.5327148-.1674805-1.0825195-.7001953-1.2285156l-1.7792969-.487793c-.534668-.1479492-1.0825195.1674805-1.2285156.7001953s.1674805 1.0830078.7001953 1.2285156z" fill="#000000" style="fill: rgb(255, 255, 255);"></path><path d="m56.6935692 10.1184015 1.2250977-1.3798828c.3666992-.4130859.3295898-1.0449214-.0834961-1.4121089-.4130859-.3662109-1.0458984-.328125-1.4116211.0839844l-1.2250977 1.3798823c-.3666992.4130859-.3295898 1.0449219.0834961 1.4116211.4148445.368043 1.0462685.3279772 1.4116211-.0834961z" fill="#000000" style="fill: rgb(255, 255, 255);"></path><path d="m52.0627098 6.9269958c.5414391.0841069 1.0550995-.2920027 1.137207-.8408203l.2734375-1.8242188c.0820313-.5458987-.2944336-1.055176-.840332-1.1372073-.5488281-.0834961-1.0556641.2944336-1.137207.8408203l-.2734375 1.8247073c-.0820313.5458984.2944336 1.0546875.840332 1.1367188z" fill="#000000" style="fill: rgb(255, 255, 255);"></path><path d="m60.1437645 13.7106867 1.7792969-.487793c.5327148-.1455078.8461914-.6958008.7001953-1.2285156s-.6967773-.8481445-1.2285156-.7001953l-1.7792969.487793c-.5327148.1459961-.8461914.6958008-.7001953 1.2285156.1474495.5388717.7041626.8450451 1.2285156.7001953z" fill="#000000" style="fill: rgb(255, 255, 255);"></path><path d="m65.7714539 44.8737717c-1.3098145-1.449707-3.3598671-1.9301758-5.1599159-1.2700195-1.103817-2.207634-3.67453-2.832695-5.5900879-1.75l-.8999023.5200195c.5400391-1.3100586.3200684-2.8598633-.6799316-3.9799805-1.3300781-1.5097656-3.6101074-1.7197266-5.2001953-.5l-10.4699709 8.1000977-5.3398438-3.3598633c-5.0300293-3.5800781-12.9101563-1.0102539-13.25-.8901367l-4.6799316 1.6401367c-.050293-1.3603516-1.170166-2.4501953-2.550293-2.4501953h-6.409912c-1.3999023 0-2.5397947 1.1401367-2.5397947 2.5498047v17.3901367c0 1.3999023 1.1398923 2.550293 2.5397947 2.550293h6.4099121c1.3100586 0 2.3901367-.9902344 2.5302734-2.2602539 5.3696156 1.6116943 4.785429 2.7258606 8.6298828 4.3300781 5.033947 2.0874405 13.3617706 2.0380707 20.3300781-1.590332l21.1098671-11.6796875c2.7179642-1.5075036 3.2407761-5.1234322 1.2199708-7.3500977zm-41.8798867 18.7700195c-3.4843826-1.4441032-3.4535179-2.9414444-9.3898926-4.5600586v-13.5898437l5.3198242-1.8598633c.0800781-.0200195 7.2399902-2.3701172 11.5.659668 1.0715752.6748581-3.8818321-2.444706 10.4799805 6.6000977.8904419.490406 1.4588242 1.5543594 1.1499023 2.7900391-.4127045 1.3642426-1.8570328 2.0846291-3.199707 1.5600586-4.2292328-1.6645546-7.3333473-2.8903427-8.880127-3.5-.5100098-.2001953-1.0900879.0498047-1.2900391.5698242-.2099609.5102539.0500488 1.0898438.5600586 1.2900391l8.8798828 3.5c2.3796082.9516411 5.1067963-.3577194 5.8400879-2.8500977.0100098-.0395508.0200195-.0698242.0300293-.1098633 22.0237619-11.6624909 14.4262239-7.6392823 16.0700685-8.5097657.0097656-.0102539.0297852-.0102539.0400391-.0200195 1.0998535-.5600586 2.449707-.3203125 3.279789.6000977 1.2059631 1.3325043.8387756 3.4068909-.699955 4.2597656l-21.079834 11.6601563c-7.2700196 3.779785-15.1101075 2.9799803-18.6101075 1.5097655z" fill="#000000" style="fill: rgb(255, 255, 255);"></path></g></g></svg>