<!-- icon666.com - MILLIONS vector ICONS FREE --><svg viewBox="0 0 25 25" xmlns="http://www.w3.org/2000/svg"><g id="Layer_14" data-name="Layer 14"><path d="m12.5 12a5 5 0 1 0 -5-5 5 5 0 0 0 5 5zm0-9a4 4 0 1 1 -4 4 4 4 0 0 1 4-4z" fill="#000000" style="fill: rgb(255, 255, 255);"></path><path d="m13.56 13h-2.12a9.47 9.47 0 0 0 -9.44 9.5.5.5 0 0 0 .5.5h20a.55.55 0 0 0 .5-.56 9.46 9.46 0 0 0 -9.44-9.44zm-10.56 9a8.46 8.46 0 0 1 8.43-8h2.12a8.46 8.46 0 0 1 8.45 8z" fill="#000000" style="fill: rgb(255, 255, 255);"></path></g></svg>