<!-- icon666.com - MILLIONS vector ICONS FREE --><svg id="Layer_3" viewBox="0 0 64 64" xmlns="http://www.w3.org/2000/svg" data-name="Layer 3"><path d="m62 53h-6v-20h2a1 1 0 0 0 .707-1.707l-8-8a1 1 0 0 0 -1.414 0l-8 8a1 1 0 0 0 .707 1.707h2v20h-6v-14h2a1 1 0 0 0 .707-1.707l-8-8a1 1 0 0 0 -1.414 0l-8 8a1 1 0 0 0 .707 1.707h2v14h-6v-6h2a1 1 0 0 0 .707-1.707l-8-8a1 1 0 0 0 -1.414 0l-8 8a1 1 0 0 0 .707 1.707h2v6h-6a1 1 0 0 0 -1 1v8a1 1 0 0 0 1 1h60a1 1 0 0 0 1-1v-8a1 1 0 0 0 -1-1zm-17-22h-.586l5.586-5.586 5.586 5.586h-.586a1 1 0 0 0 -1 1v21h-8v-21a1 1 0 0 0 -1-1zm-18 6h-.586l5.586-5.586 5.586 5.586h-.586a1 1 0 0 0 -1 1v15h-8v-15a1 1 0 0 0 -1-1zm-18 8h-.586l5.586-5.586 5.586 5.586h-.586a1 1 0 0 0 -1 1v7h-8v-7a1 1 0 0 0 -1-1zm52 16h-58v-6h58z" fill="#000000" style="fill: rgb(255, 255, 255);"></path><path d="m41.781 12.024a1 1 0 0 0 -.395 1.765l3.676 2.865-1.042 5.146a1 1 0 0 0 1.491 1.057l4.489-2.663 4.489 2.665a1 1 0 0 0 1.491-1.059l-1.042-5.148 3.676-2.865a1 1 0 0 0 -.395-1.765l-5.168-1.158-2.151-4.311a1.042 1.042 0 0 0 -1.79 0l-2.156 4.313zm6.744.162 1.475-2.95 1.475 2.95a1 1 0 0 0 .675.528l3.565.8-2.5 1.944a1 1 0 0 0 -.366.987l.718 3.545-3.061-1.817a1 1 0 0 0 -1.022 0l-3.061 1.817.718-3.545a1 1 0 0 0 -.366-.987l-2.5-1.944 3.565-.8a1 1 0 0 0 .685-.528z" fill="#000000" style="fill: rgb(255, 255, 255);"></path><path d="m40.976 18.781a1 1 0 0 0 -.757-.757l-5.168-1.158-2.151-4.313a1.042 1.042 0 0 0 -1.79 0l-2.156 4.313-5.168 1.158a1 1 0 0 0 -.395 1.765l3.676 2.865-1.047 5.146a1 1 0 0 0 1.491 1.057l4.489-2.663 4.489 2.665a1 1 0 0 0 1.491-1.059l-1.042-5.148 3.676-2.865a1 1 0 0 0 .362-1.006zm-5.756 2.676a1 1 0 0 0 -.366.987l.718 3.545-3.061-1.817a1 1 0 0 0 -1.022 0l-3.061 1.817.718-3.545a1 1 0 0 0 -.366-.987l-2.5-1.944 3.565-.8a1 1 0 0 0 .675-.528l1.48-2.949 1.475 2.95a1 1 0 0 0 .675.528l3.565.8z" fill="#000000" style="fill: rgb(255, 255, 255);"></path><path d="m22.976 26.781a1 1 0 0 0 -.757-.757l-5.168-1.158-2.151-4.313a1.042 1.042 0 0 0 -1.79 0l-2.156 4.313-5.173 1.158a1 1 0 0 0 -.395 1.765l3.676 2.865-1.042 5.146a1 1 0 0 0 1.491 1.057l4.489-2.663 4.489 2.665a1 1 0 0 0 1.491-1.059l-1.042-5.148 3.676-2.865a1 1 0 0 0 .362-1.006zm-5.756 2.676a1 1 0 0 0 -.366.987l.718 3.545-3.061-1.817a1 1 0 0 0 -1.022 0l-3.061 1.817.718-3.545a1 1 0 0 0 -.366-.987l-2.495-1.944 3.565-.8a1 1 0 0 0 .675-.528l1.475-2.949 1.475 2.95a1 1 0 0 0 .675.528l3.565.8z" fill="#000000" style="fill: rgb(255, 255, 255);"></path><path d="m49 1h2v3h-2z" fill="#000000" style="fill: rgb(255, 255, 255);"></path><path d="m53.586 3h2.828v2h-2.828z" transform="matrix(.707 -.707 .707 .707 13.281 40.062)" fill="#000000" style="fill: rgb(255, 255, 255);"></path><path d="m44 2.586h2v2.828h-2z" transform="matrix(.707 -.707 .707 .707 10.352 32.991)" fill="#000000" style="fill: rgb(255, 255, 255);"></path><path d="m56 8h3v2h-3z" fill="#000000" style="fill: rgb(255, 255, 255);"></path><path d="m41 8h3v2h-3z" fill="#000000" style="fill: rgb(255, 255, 255);"></path></svg>