<svg xmlns="http://www.w3.org/2000/svg" xmlns:xlink="http://www.w3.org/1999/xlink" width="654" height="476" viewBox="0 0 654 476">
  <defs>
    <linearGradient id="linear-gradient" x1="0.287" y1="-0.052" x2="0.782" y2="1.23" gradientUnits="objectBoundingBox">
      <stop offset="0" stop-color="#fff"/>
      <stop offset="1" stop-color="#f0f7fc"/>
    </linearGradient>
    <clipPath id="clip-path">
      <rect id="Rectangle_6630" data-name="Rectangle 6630" width="654" height="476" transform="translate(0 0)" fill="url(#linear-gradient)"/>
    </clipPath>
    <linearGradient id="linear-gradient-2" x1="5.186" y1="6.759" x2="0.097" y2="-0.039" gradientUnits="objectBoundingBox">
      <stop offset="0" stop-color="#52bbe8"/>
      <stop offset="0.2" stop-color="#69c3eb"/>
      <stop offset="0.6" stop-color="#a3d8f1"/>
      <stop offset="1" stop-color="#e1eff8"/>
    </linearGradient>
    <linearGradient id="linear-gradient-3" x1="6.112" y1="8.005" x2="1.028" y2="1.206" xlink:href="#linear-gradient-2"/>
    <linearGradient id="linear-gradient-4" x1="4.79" y1="6.233" x2="-0.3" y2="-0.57" xlink:href="#linear-gradient-2"/>
    <linearGradient id="linear-gradient-5" x1="4.538" y1="5.906" x2="-0.546" y2="-0.901" xlink:href="#linear-gradient-2"/>
    <linearGradient id="linear-gradient-6" x1="4.241" y1="5.512" x2="-0.838" y2="-1.295" xlink:href="#linear-gradient-2"/>
    <linearGradient id="linear-gradient-7" x1="3.95" y1="5.118" x2="-1.135" y2="-1.689" xlink:href="#linear-gradient-2"/>
    <linearGradient id="linear-gradient-8" x1="3.658" y1="4.724" x2="-1.431" y2="-2.083" xlink:href="#linear-gradient-2"/>
    <linearGradient id="linear-gradient-9" x1="4.002" y1="5.18" x2="-1.088" y2="-1.623" xlink:href="#linear-gradient-2"/>
    <linearGradient id="linear-gradient-10" x1="3.703" y1="4.784" x2="-1.381" y2="-2.015" xlink:href="#linear-gradient-2"/>
    <linearGradient id="linear-gradient-11" x1="3.412" y1="4.392" x2="-1.678" y2="-2.41" xlink:href="#linear-gradient-2"/>
    <linearGradient id="linear-gradient-12" x1="3.809" y1="9.046" x2="-1.276" y2="-3.725" xlink:href="#linear-gradient-2"/>
    <linearGradient id="linear-gradient-13" x1="3.515" y1="8.307" x2="-1.57" y2="-4.464" xlink:href="#linear-gradient-2"/>
    <linearGradient id="linear-gradient-14" x1="3.22" y1="7.568" x2="-1.864" y2="-5.203" xlink:href="#linear-gradient-2"/>
    <linearGradient id="linear-gradient-15" x1="2.926" y1="6.829" x2="-2.159" y2="-5.942" xlink:href="#linear-gradient-2"/>
    <linearGradient id="linear-gradient-16" x1="16.88" y1="7.819" x2="1.276" y2="0.925" xlink:href="#linear-gradient-2"/>
    <linearGradient id="linear-gradient-17" x1="4.396" y1="5.715" x2="0.545" y2="0.559" xlink:href="#linear-gradient-2"/>
    <linearGradient id="linear-gradient-18" x1="4.106" y1="5.326" x2="0.254" y2="0.17" xlink:href="#linear-gradient-2"/>
    <linearGradient id="linear-gradient-19" x1="5.348" y1="5.351" x2="0.132" y2="0.202" xlink:href="#linear-gradient-2"/>
    <linearGradient id="linear-gradient-20" x1="3.862" y1="5" x2="0.011" y2="-0.155" xlink:href="#linear-gradient-2"/>
    <linearGradient id="linear-gradient-21" x1="3.571" y1="4.611" x2="-0.279" y2="-0.544" xlink:href="#linear-gradient-2"/>
    <linearGradient id="linear-gradient-22" x1="13.733" y1="6.43" x2="-1.872" y2="-0.466" xlink:href="#linear-gradient-2"/>
    <linearGradient id="linear-gradient-23" x1="3.619" y1="4.675" x2="-0.232" y2="-0.481" xlink:href="#linear-gradient-2"/>
    <linearGradient id="linear-gradient-24" x1="3.329" y1="4.286" x2="-0.523" y2="-0.869" xlink:href="#linear-gradient-2"/>
    <linearGradient id="linear-gradient-25" x1="13.687" y1="35.856" x2="-5.17" y2="-14.584" xlink:href="#linear-gradient-2"/>
    <linearGradient id="linear-gradient-26" x1="4.396" y1="4.423" x2="-0.82" y2="-0.909" xlink:href="#linear-gradient-2"/>
    <linearGradient id="linear-gradient-27" x1="3.086" y1="4.097" x2="-0.766" y2="-1.235" xlink:href="#linear-gradient-2"/>
    <linearGradient id="linear-gradient-28" x1="2.795" y1="3.695" x2="-1.056" y2="-1.637" xlink:href="#linear-gradient-2"/>
    <linearGradient id="linear-gradient-30" x1="3.217" y1="15.529" x2="-0.993" y2="-6.986" xlink:href="#linear-gradient-2"/>
    <linearGradient id="linear-gradient-31" x1="2.9" y1="13.831" x2="-1.311" y2="-8.684" xlink:href="#linear-gradient-2"/>
    <linearGradient id="linear-gradient-32" x1="2.582" y1="12.133" x2="-1.629" y2="-10.382" xlink:href="#linear-gradient-2"/>
    <linearGradient id="linear-gradient-33" x1="2.264" y1="10.435" x2="-1.946" y2="-12.08" xlink:href="#linear-gradient-2"/>
    <linearGradient id="linear-gradient-34" x1="78.594" y1="121.075" x2="7.641" y2="11.528" xlink:href="#linear-gradient-2"/>
    <linearGradient id="linear-gradient-35" x1="433.66" y1="669.315" x2="13.204" y2="20.13" xlink:href="#linear-gradient-2"/>
    <linearGradient id="linear-gradient-36" x1="36.572" y1="56.194" x2="-0.406" y2="-0.899" xlink:href="#linear-gradient-2"/>
    <linearGradient id="linear-gradient-37" x1="55.128" y1="84.844" x2="-4" y2="-6.448" xlink:href="#linear-gradient-2"/>
    <linearGradient id="linear-gradient-38" x1="57.535" y1="88.563" x2="-8.084" y2="-12.754" xlink:href="#linear-gradient-2"/>
    <linearGradient id="linear-gradient-39" x1="124.523" y1="192" x2="-3.028" y2="-4.944" xlink:href="#linear-gradient-2"/>
    <linearGradient id="linear-gradient-40" x1="59.691" y1="91.886" x2="-4.813" y2="-7.705" xlink:href="#linear-gradient-2"/>
    <linearGradient id="linear-gradient-41" x1="32.317" y1="49.625" x2="-4.421" y2="-7.099" xlink:href="#linear-gradient-2"/>
    <linearGradient id="linear-gradient-42" x1="80.358" y1="123.781" x2="-6.965" y2="-11.05" xlink:href="#linear-gradient-2"/>
    <linearGradient id="linear-gradient-43" x1="60.225" y1="92.725" x2="3.463" y2="5.085" xlink:href="#linear-gradient-2"/>
    <linearGradient id="linear-gradient-44" x1="97.915" y1="150.903" x2="9.911" y2="15.031" xlink:href="#linear-gradient-2"/>
    <linearGradient id="linear-gradient-45" x1="132.015" y1="203.56" x2="18.495" y2="28.285" xlink:href="#linear-gradient-2"/>
    <linearGradient id="linear-gradient-46" x1="44.368" y1="68.231" x2="6.401" y2="9.609" xlink:href="#linear-gradient-2"/>
    <linearGradient id="linear-gradient-47" x1="47.757" y1="73.469" x2="2.708" y2="3.915" xlink:href="#linear-gradient-2"/>
    <linearGradient id="linear-gradient-48" x1="40.504" y1="62.267" x2="-8.427" y2="-13.284" xlink:href="#linear-gradient-2"/>
    <linearGradient id="linear-gradient-49" x1="77.898" y1="119.994" x2="-17.5" y2="-27.294" xlink:href="#linear-gradient-2"/>
    <linearGradient id="linear-gradient-50" x1="44.038" y1="67.724" x2="-4.476" y2="-7.182" xlink:href="#linear-gradient-2"/>
    <linearGradient id="linear-gradient-51" x1="515.238" y1="795.265" x2="-25.333" y2="-39.429" xlink:href="#linear-gradient-2"/>
    <linearGradient id="linear-gradient-52" x1="61.436" y1="94.585" x2="0.73" y2="0.853" xlink:href="#linear-gradient-2"/>
    <linearGradient id="linear-gradient-53" x1="71.053" y1="109.438" x2="0.543" y2="0.568" xlink:href="#linear-gradient-2"/>
    <linearGradient id="linear-gradient-54" x1="65.776" y1="101.29" x2="-11.976" y2="-18.76" xlink:href="#linear-gradient-2"/>
    <linearGradient id="linear-gradient-55" x1="36.248" y1="55.694" x2="-3.725" y2="-6.021" xlink:href="#linear-gradient-2"/>
    <linearGradient id="linear-gradient-56" x1="37.609" y1="57.81" x2="-9.496" y2="-14.919" xlink:href="#linear-gradient-2"/>
    <linearGradient id="linear-gradient-57" x1="72.564" y1="111.781" x2="-26.147" y2="-40.634" xlink:href="#linear-gradient-2"/>
    <linearGradient id="linear-gradient-58" x1="35.036" y1="53.826" x2="-16.099" y2="-25.126" xlink:href="#linear-gradient-2"/>
    <linearGradient id="linear-gradient-59" x1="36.163" y1="55.56" x2="-16.885" y2="-26.343" xlink:href="#linear-gradient-2"/>
    <linearGradient id="linear-gradient-60" x1="28.546" y1="43.794" x2="-16.862" y2="-26.316" xlink:href="#linear-gradient-2"/>
    <linearGradient id="linear-gradient-61" x1="59.052" y1="90.899" x2="-19.785" y2="-30.823" xlink:href="#linear-gradient-2"/>
    <linearGradient id="linear-gradient-62" x1="79.217" y1="122.04" x2="-19.496" y2="-30.378" xlink:href="#linear-gradient-2"/>
    <linearGradient id="linear-gradient-63" x1="177.349" y1="273.579" x2="-30.954" y2="-48.046" xlink:href="#linear-gradient-2"/>
    <linearGradient id="linear-gradient-64" x1="42.989" y1="66.104" x2="-7.241" y2="-11.454" xlink:href="#linear-gradient-2"/>
    <linearGradient id="linear-gradient-65" x1="45.637" y1="70.191" x2="-15.398" y2="-24.046" xlink:href="#linear-gradient-2"/>
    <linearGradient id="linear-gradient-66" x1="70.664" y1="108.84" x2="-18.023" y2="-28.094" xlink:href="#linear-gradient-2"/>
    <linearGradient id="linear-gradient-67" x1="83.72" y1="129.036" x2="-29.805" y2="-46.244" xlink:href="#linear-gradient-2"/>
    <linearGradient id="linear-gradient-68" x1="40.94" y1="62.938" x2="-23.562" y2="-36.651" xlink:href="#linear-gradient-2"/>
    <linearGradient id="linear-gradient-69" x1="30.967" y1="47.539" x2="-13.726" y2="-21.467" xlink:href="#linear-gradient-2"/>
    <linearGradient id="linear-gradient-70" x1="23.947" y1="36.702" x2="-17.485" y2="-27.268" xlink:href="#linear-gradient-2"/>
    <linearGradient id="linear-gradient-71" x1="46.496" y1="71.523" x2="-20.674" y2="-32.192" xlink:href="#linear-gradient-2"/>
    <linearGradient id="linear-gradient-72" x1="26.545" y1="40.706" x2="-14.585" y2="-22.801" xlink:href="#linear-gradient-2"/>
    <linearGradient id="linear-gradient-73" x1="25.089" y1="38.465" x2="-14.328" y2="-22.396" xlink:href="#linear-gradient-2"/>
    <linearGradient id="linear-gradient-74" x1="61.448" y1="94.595" x2="-45.651" y2="-70.76" xlink:href="#linear-gradient-2"/>
    <linearGradient id="linear-gradient-75" x1="25.161" y1="38.582" x2="-28.133" y2="-43.707" xlink:href="#linear-gradient-2"/>
    <linearGradient id="linear-gradient-76" x1="18.575" y1="28.408" x2="-16.354" y2="-25.523" xlink:href="#linear-gradient-2"/>
    <linearGradient id="linear-gradient-77" x1="183.779" y1="246.179" x2="-80.213" y2="-107.663" xlink:href="#linear-gradient-2"/>
    <linearGradient id="linear-gradient-78" x1="56.945" y1="87.642" x2="-24.726" y2="-38.452" xlink:href="#linear-gradient-2"/>
    <linearGradient id="linear-gradient-79" x1="20.907" y1="32.008" x2="-11.161" y2="-17.504" xlink:href="#linear-gradient-2"/>
    <linearGradient id="linear-gradient-80" x1="31.189" y1="47.882" x2="-21.86" y2="-34.022" xlink:href="#linear-gradient-2"/>
    <linearGradient id="linear-gradient-81" x1="27.268" y1="41.831" x2="-19.258" y2="-30.003" xlink:href="#linear-gradient-2"/>
    <linearGradient id="linear-gradient-82" x1="21.684" y1="33.215" x2="-19.003" y2="-29.609" xlink:href="#linear-gradient-2"/>
    <linearGradient id="linear-gradient-83" x1="76.056" y1="16.01" x2="5.545" y2="1.536" xlink:href="#linear-gradient-2"/>
    <linearGradient id="linear-gradient-84" x1="4.623" y1="8.382" x2="-0.461" y2="-1.562" xlink:href="#linear-gradient-2"/>
    <linearGradient id="linear-gradient-85" x1="7.808" y1="6.176" x2="-1.114" y2="-0.622" xlink:href="#linear-gradient-2"/>
    <linearGradient id="linear-gradient-86" x1="54.473" y1="9.626" x2="-16.041" y2="-2.255" xlink:href="#linear-gradient-2"/>
    <linearGradient id="linear-gradient-87" x1="4.248" y1="5.509" x2="-0.841" y2="-1.293" xlink:href="#linear-gradient-2"/>
    <linearGradient id="linear-gradient-88" x1="3.949" y1="5.115" x2="-1.135" y2="-1.687" xlink:href="#linear-gradient-2"/>
    <linearGradient id="linear-gradient-89" x1="3.655" y1="4.722" x2="-1.429" y2="-2.081" xlink:href="#linear-gradient-2"/>
    <linearGradient id="linear-gradient-90" x1="6.427" y1="5.124" x2="-2.495" y2="-1.675" xlink:href="#linear-gradient-2"/>
    <linearGradient id="linear-gradient-91" x1="3.704" y1="4.786" x2="-1.381" y2="-2.017" xlink:href="#linear-gradient-2"/>
    <linearGradient id="linear-gradient-92" x1="3.409" y1="4.392" x2="-1.676" y2="-2.41" xlink:href="#linear-gradient-2"/>
    <linearGradient id="linear-gradient-93" x1="43.56" y1="7.789" x2="-26.954" y2="-4.096" xlink:href="#linear-gradient-2"/>
    <linearGradient id="linear-gradient-94" x1="3.46" y1="4.456" x2="-1.628" y2="-2.346" xlink:href="#linear-gradient-2"/>
    <linearGradient id="linear-gradient-95" x1="3.162" y1="4.062" x2="-1.922" y2="-2.74" xlink:href="#linear-gradient-2"/>
    <linearGradient id="linear-gradient-96" x1="2.868" y1="3.669" x2="-2.215" y2="-3.134" xlink:href="#linear-gradient-2"/>
    <linearGradient id="linear-gradient-97" x1="5.474" y1="9.938" x2="-3.448" y2="-7.232" xlink:href="#linear-gradient-2"/>
    <linearGradient id="linear-gradient-98" x1="3.01" y1="9.292" x2="-2.074" y2="-7.878" xlink:href="#linear-gradient-2"/>
    <linearGradient id="linear-gradient-99" x1="2.715" y1="8.298" x2="-2.368" y2="-8.872" xlink:href="#linear-gradient-2"/>
    <linearGradient id="linear-gradient-100" x1="2.421" y1="7.305" x2="-2.662" y2="-9.865" xlink:href="#linear-gradient-2"/>
    <linearGradient id="linear-gradient-101" x1="66.781" y1="9.533" x2="-1.307" y2="0.28" xlink:href="#linear-gradient-2"/>
    <linearGradient id="linear-gradient-102" x1="4.103" y1="5.321" x2="0.254" y2="0.171" xlink:href="#linear-gradient-2"/>
    <linearGradient id="linear-gradient-103" x1="181.315" y1="5.754" x2="-165.09" y2="-4.323" xlink:href="#linear-gradient-2"/>
    <linearGradient id="linear-gradient-104" x1="6.405" y1="4.94" x2="-0.623" y2="-0.21" xlink:href="#linear-gradient-2"/>
    <linearGradient id="linear-gradient-105" x1="3.57" y1="4.608" x2="-0.278" y2="-0.542" xlink:href="#linear-gradient-2"/>
    <linearGradient id="linear-gradient-106" x1="53.049" y1="7.667" x2="-15.039" y2="-1.587" xlink:href="#linear-gradient-2"/>
    <linearGradient id="linear-gradient-107" x1="3.327" y1="4.283" x2="-0.522" y2="-0.867" xlink:href="#linear-gradient-2"/>
    <linearGradient id="linear-gradient-108" x1="4.988" y1="3.901" x2="-2.04" y2="-1.248" xlink:href="#linear-gradient-2"/>
    <linearGradient id="linear-gradient-109" x1="2.794" y1="3.569" x2="-1.055" y2="-1.581" xlink:href="#linear-gradient-2"/>
    <linearGradient id="linear-gradient-110" x1="39.966" y1="6.833" x2="-28.12" y2="-4.138" xlink:href="#linear-gradient-2"/>
    <linearGradient id="linear-gradient-111" x1="2.567" y1="4.681" x2="-1.284" y2="-2.771" xlink:href="#linear-gradient-2"/>
    <linearGradient id="linear-gradient-112" x1="2.277" y1="4.119" x2="-1.574" y2="-3.333" xlink:href="#linear-gradient-2"/>
    <linearGradient id="linear-gradient-113" x1="1.986" y1="3.557" x2="-1.865" y2="-3.895" xlink:href="#linear-gradient-2"/>
    <linearGradient id="linear-gradient-114" x1="1.696" y1="2.995" x2="-2.155" y2="-4.457" xlink:href="#linear-gradient-2"/>
    <linearGradient id="linear-gradient-115" x1="47.848" y1="73.724" x2="2.715" y2="3.925" xlink:href="#linear-gradient-2"/>
    <linearGradient id="linear-gradient-116" x1="40.53" y1="62.306" x2="-8.431" y2="-13.29" xlink:href="#linear-gradient-2"/>
    <linearGradient id="linear-gradient-117" x1="39.707" y1="61.033" x2="-11.897" y2="-18.644" xlink:href="#linear-gradient-2"/>
    <linearGradient id="linear-gradient-118" x1="47.478" y1="73.033" x2="-14.104" y2="-22.049" xlink:href="#linear-gradient-2"/>
    <linearGradient id="linear-gradient-119" x1="65.86" y1="101.407" x2="-11.983" y2="-18.781" xlink:href="#linear-gradient-2"/>
    <linearGradient id="linear-gradient-120" x1="36.308" y1="55.164" x2="-3.732" y2="-5.96" xlink:href="#linear-gradient-2"/>
    <linearGradient id="linear-gradient-121" x1="37.636" y1="57.84" x2="-9.493" y2="-14.927" xlink:href="#linear-gradient-2"/>
    <linearGradient id="linear-gradient-122" x1="72.763" y1="112.071" x2="-26.207" y2="-40.739" xlink:href="#linear-gradient-2"/>
    <linearGradient id="linear-gradient-123" x1="35.161" y1="54.015" x2="-16.157" y2="-25.22" xlink:href="#linear-gradient-2"/>
    <linearGradient id="linear-gradient-124" x1="36.188" y1="55.602" x2="-16.898" y2="-26.364" xlink:href="#linear-gradient-2"/>
    <linearGradient id="linear-gradient-125" x1="28.554" y1="43.815" x2="-16.875" y2="-26.328" xlink:href="#linear-gradient-2"/>
    <linearGradient id="linear-gradient-126" x1="45.541" y1="70.196" x2="-15.363" y2="-24.046" xlink:href="#linear-gradient-2"/>
    <linearGradient id="linear-gradient-127" x1="70.769" y1="108.994" x2="-18.051" y2="-28.144" xlink:href="#linear-gradient-2"/>
    <linearGradient id="linear-gradient-128" x1="79.871" y1="123.051" x2="-28.375" y2="-44.082" xlink:href="#linear-gradient-2"/>
    <linearGradient id="linear-gradient-129" x1="40.901" y1="62.886" x2="-23.544" y2="-36.616" xlink:href="#linear-gradient-2"/>
    <linearGradient id="linear-gradient-130" x1="30.968" y1="47.543" x2="-13.727" y2="-21.468" xlink:href="#linear-gradient-2"/>
    <linearGradient id="linear-gradient-131" x1="23.978" y1="36.749" x2="-17.506" y2="-27.302" xlink:href="#linear-gradient-2"/>
    <linearGradient id="linear-gradient-132" x1="46.561" y1="71.617" x2="-20.699" y2="-32.233" xlink:href="#linear-gradient-2"/>
    <linearGradient id="linear-gradient-133" x1="26.534" y1="40.7" x2="-14.58" y2="-22.782" xlink:href="#linear-gradient-2"/>
    <linearGradient id="linear-gradient-134" x1="25.055" y1="38.413" x2="-14.308" y2="-22.364" xlink:href="#linear-gradient-2"/>
    <linearGradient id="linear-gradient-135" x1="61.164" y1="94.145" x2="-45.414" y2="-70.414" xlink:href="#linear-gradient-2"/>
    <linearGradient id="linear-gradient-136" x1="25.257" y1="38.722" x2="-28.241" y2="-43.878" xlink:href="#linear-gradient-2"/>
    <linearGradient id="linear-gradient-137" x1="18.426" y1="28.173" x2="-16.214" y2="-25.311" xlink:href="#linear-gradient-2"/>
    <linearGradient id="linear-gradient-138" x1="22.107" y1="32.012" x2="-11.896" y2="-17.509" xlink:href="#linear-gradient-2"/>
    <linearGradient id="linear-gradient-139" x1="39.773" y1="61.15" x2="-34.324" y2="-53.257" xlink:href="#linear-gradient-2"/>
    <linearGradient id="linear-gradient-140" x1="20.284" y1="31.049" x2="-17.265" y2="-26.927" xlink:href="#linear-gradient-2"/>
    <linearGradient id="linear-gradient-141" x1="31.21" y1="47.917" x2="-21.877" y2="-34.051" xlink:href="#linear-gradient-2"/>
    <linearGradient id="linear-gradient-142" x1="27.073" y1="41.533" x2="-19.112" y2="-29.777" xlink:href="#linear-gradient-2"/>
    <linearGradient id="linear-gradient-143" x1="21.718" y1="33.259" x2="-19.034" y2="-29.663" xlink:href="#linear-gradient-2"/>
    <linearGradient id="linear-gradient-144" x1="22.002" y1="33.696" x2="-29.893" y2="-46.428" xlink:href="#linear-gradient-2"/>
    <linearGradient id="linear-gradient-145" x1="20.704" y1="31.691" x2="-28.431" y2="-44.172" xlink:href="#linear-gradient-2"/>
    <linearGradient id="linear-gradient-146" x1="58.379" y1="90.183" x2="-40.596" y2="-63.179" xlink:href="#linear-gradient-2"/>
    <linearGradient id="linear-gradient-147" x1="19.087" y1="29.198" x2="-20.276" y2="-31.58" xlink:href="#linear-gradient-2"/>
    <linearGradient id="linear-gradient-148" x1="41.895" y1="64.411" x2="-46.357" y2="-71.85" xlink:href="#linear-gradient-2"/>
    <linearGradient id="linear-gradient-149" x1="24.243" y1="37.161" x2="-42.37" y2="-65.692" xlink:href="#linear-gradient-2"/>
  </defs>
  <g id="background" transform="translate(-20.15 -34.72)" opacity="0.28">
    <g id="Layer_1" data-name="Layer 1" transform="translate(20.15 34.72)">
      <g id="Group_3" data-name="Group 3" clip-path="url(#clip-path)">
        <g id="Group_1" data-name="Group 1" transform="translate(-33.303 -57.384)">
          <path id="Path_1" data-name="Path 1" d="M244.583,91.774H244.5L207.66,70.453V27.844h.083l36.84-21.3h0l36.824,21.255V70.453h0ZM208.007,70.288l36.576,21.106,36.576-21.123V28.026L244.583,6.9,207.991,28.026Z" transform="translate(168.859 61.654)" fill="url(#linear-gradient-2)"/>
          <path id="Path_6" data-name="Path 6" d="M44.487,130.267H44.4L7.58,108.963V66.354h0l36.907-21.3h.083l36.824,21.3v42.609H81.31ZM7.894,108.781,44.487,129.9,81,108.781V66.536L44.487,45.414,7.894,66.536Z" transform="translate(38.252 86.792)" fill="url(#linear-gradient-3)"/>
          <path id="Path_18" data-name="Path 18" d="M66.717,245.768h0l-36.907-21.3V181.855h.083L66.717,160.6h0l36.824,21.271V224.48h0ZM30.124,224.282,66.7,245.4l36.576-21.122V182.037L66.717,160.914,30.124,182.037Z" transform="translate(52.763 162.221)" fill="url(#linear-gradient-4)"/>
          <path id="Path_21" data-name="Path 21" d="M44.487,284.258H44.4L7.58,262.937V220.395h0L44.4,199.14h.083l36.907,21.255V263H81.31ZM7.894,262.772l36.592,21.122L81,262.755V220.51l-36.51-21.123L7.894,220.51Z" transform="translate(38.252 187.379)" fill="url(#linear-gradient-5)"/>
          <path id="Path_22" data-name="Path 22" d="M88.973,284.258H88.89L52,262.937V220.395h.083L88.907,199.14h0l36.973,21.255V263h0ZM52.4,262.772l36.576,21.122,36.592-21.122V220.51L88.973,199.388,52.4,220.51Z" transform="translate(67.248 187.379)" fill="url(#linear-gradient-6)"/>
          <path id="Path_23" data-name="Path 23" d="M133.4,284.258h0L96.51,262.937V220.395h0l36.824-21.255h0l36.973,21.255V263h0ZM96.824,262.772,133.4,283.894l36.642-21.139V220.51L133.45,199.388,96.824,220.51Z" transform="translate(96.303 187.379)" fill="url(#linear-gradient-7)"/>
          <path id="Path_24" data-name="Path 24" d="M177.857,284.258h-.083L141,262.937V220.395h.083l36.824-21.255h0l36.84,21.255V263h0Zm-36.592-21.486,36.592,21.122,36.576-21.122V220.51l-36.576-21.123L141.264,220.51Z" transform="translate(125.345 187.379)" fill="url(#linear-gradient-8)"/>
          <path id="Path_26" data-name="Path 26" d="M66.717,322.778h0l-36.907-21.3V258.865h.083L66.717,237.61h0l36.824,21.271V301.49h0ZM30.124,301.292,66.7,322.414l36.576-21.122V259.047L66.717,237.924,30.124,259.047Z" transform="translate(52.763 212.491)" fill="url(#linear-gradient-9)"/>
          <path id="Path_27" data-name="Path 27" d="M111.177,322.8h0l-36.907-21.3V258.884h0l36.907-21.3h.083l36.824,21.271V301.46H148ZM74.6,301.311l36.576,21.122,36.592-21.122V259.066l-36.592-21.122L74.6,259.066Z" transform="translate(81.785 212.471)" fill="url(#linear-gradient-10)"/>
          <path id="Path_28" data-name="Path 28" d="M155.614,322.778h0L118.79,301.523V258.865h.083L155.7,237.61h0l36.824,21.271V301.49h0Zm-36.592-21.486,36.592,21.122,36.576-21.122V259.047l-36.576-21.122-36.592,21.122Z" transform="translate(110.847 212.491)" fill="url(#linear-gradient-11)"/>
          <path id="Path_29" data-name="Path 29" d="M28.044,356.169V332.3L64.62,311.18,101.213,332.3v23.866h.314V332.1L64.7,310.85l-.083-.05L27.8,332.071l-.066.033v24.064Z" transform="translate(18.102 202.883)" fill="url(#linear-gradient-12)"/>
          <path id="Path_30" data-name="Path 30" d="M72.5,356.169V332.3L109.1,311.18,145.673,332.3v23.866h.314V332.1L109.163,310.85l-.066-.05L72.273,332.071l-.083.033v24.064Z" transform="translate(47.124 202.883)" fill="url(#linear-gradient-13)"/>
          <path id="Path_31" data-name="Path 31" d="M116.964,356.169V332.3l36.592-21.122L190.149,332.3v23.866h.314V332.1L153.639,310.85l-.083-.05-36.824,21.271-.083.033v24.064Z" transform="translate(76.147 202.883)" fill="url(#linear-gradient-14)"/>
          <path id="Path_32" data-name="Path 32" d="M161.434,356.169V332.3L198.01,311.18,234.6,332.3v23.866h.314V332.1L198.093,310.85l-.083-.05-36.824,21.271-.066.033v24.064Z" transform="translate(105.176 202.883)" fill="url(#linear-gradient-15)"/>
          <path id="Path_43" data-name="Path 43" d="M0,130.56v1.934l22.4,12.925v54.327L0,212.67V214.6l24.048-13.9V144.46Z" transform="translate(0 85.227)" fill="url(#linear-gradient-16)"/>
          <path id="Path_44" data-name="Path 44" d="M42.124,199.689-6.6,171.592V115.4L42.124,87.3l48.707,28.1v56.194ZM-4.931,170.6l47.055,27.172L89.178,170.6V116.273L42.124,89.1-4.931,116.273Z" transform="translate(28.995 114.372)" fill="url(#linear-gradient-17)"/>
          <path id="Path_45" data-name="Path 45" d="M100.057,199.689l-48.707-28.1V115.4l48.707-28.1,48.724,28.1v56.194ZM53,170.6l47.055,27.172L147.128,170.6V116.273L100.057,89.1,53,116.273Z" transform="translate(66.824 114.372)" fill="url(#linear-gradient-18)"/>
          <path id="Path_47" data-name="Path 47" d="M23.222,172.13,0,185.534v1.934l23.222-13.421,47.055,27.172v54.343L23.222,282.717,0,269.313v1.917l23.222,13.421,48.724-28.13V200.26Z" transform="translate(0 112.363)" fill="url(#linear-gradient-19)"/>
          <path id="Path_48" data-name="Path 48" d="M71.094,249.869l-48.724-28.1V165.577l48.724-28.1,48.724,28.1v56.194ZM24.039,220.8l47.055,27.155L118.148,220.8v-54.36L71.094,139.282,24.039,166.437Z" transform="translate(47.906 147.128)" fill="url(#linear-gradient-20)"/>
          <path id="Path_49" data-name="Path 49" d="M129.044,249.869l-48.724-28.1V165.577l48.724-28.1,48.724,28.1v56.194ZM81.989,220.8l47.055,27.155L176.1,220.8v-54.36l-47.055-27.155L81.989,166.437Z" transform="translate(85.735 147.128)" fill="url(#linear-gradient-21)"/>
          <path id="Path_50" data-name="Path 50" d="M0,230.93v1.917l22.4,12.925v54.343L0,313.04v1.917l24.048-13.883V244.813Z" transform="translate(0 150.746)" fill="url(#linear-gradient-22)"/>
          <path id="Path_51" data-name="Path 51" d="M42.124,300.059-6.6,271.962V215.767l48.724-28.1,48.707,28.1v56.194ZM-4.931,270.97l47.055,27.172L89.178,270.97V216.627L42.124,189.472-4.931,216.627Z" transform="translate(28.995 179.891)" fill="url(#linear-gradient-23)"/>
          <path id="Path_52" data-name="Path 52" d="M100.057,300.059l-48.707-28.1V215.767l48.707-28.1,48.724,28.1v56.194ZM53,270.97l47.055,27.172,47.071-27.172V216.627l-47.071-27.155L53,216.627Z" transform="translate(66.824 179.891)" fill="url(#linear-gradient-24)"/>
          <path id="Path_54" data-name="Path 54" d="M0,333.217l16.577,9.57H19.9L0,331.3Z" transform="translate(0 216.265)" fill="url(#linear-gradient-25)"/>
          <path id="Path_55" data-name="Path 55" d="M23.222,272.5,0,285.9v1.917l23.222-13.4,47.055,27.172v54.327L26.544,381.17h3.322l42.08-24.279V300.63Z" transform="translate(0 177.882)" fill="url(#linear-gradient-26)"/>
          <path id="Path_56" data-name="Path 56" d="M87.905,381.17,44.189,355.916V301.589l47.055-27.172L138.3,301.589v54.327L94.566,381.17h3.322l42.063-24.279V300.63L91.244,272.5,42.52,300.63v56.261L84.583,381.17Z" transform="translate(27.756 177.882)" fill="url(#linear-gradient-27)"/>
          <path id="Path_57" data-name="Path 57" d="M145.855,381.17l-43.733-25.254V301.589l47.055-27.172,47.055,27.172v54.327L152.516,381.17h3.322L197.9,356.891V300.63L149.177,272.5,100.47,300.63v56.261l42.063,24.279Z" transform="translate(65.585 177.882)" fill="url(#linear-gradient-28)"/>
          <path id="Path_61" data-name="Path 61" d="M0,331.3v1.917l16.577,9.57H19.9Z" transform="translate(0 216.265)" fill="url(#linear-gradient-25)"/>
          <path id="Path_62" data-name="Path 62" d="M19.382,348.414l41.237-23.8,41.237,23.8h3.339L60.619,322.68,16.06,348.414Z" transform="translate(10.484 210.638)" fill="url(#linear-gradient-30)"/>
          <path id="Path_63" data-name="Path 63" d="M77.332,348.414l41.237-23.8,41.237,23.8h3.322L118.569,322.68,74.01,348.414Z" transform="translate(48.312 210.638)" fill="url(#linear-gradient-31)"/>
          <path id="Path_64" data-name="Path 64" d="M135.282,348.414l41.237-23.8,41.237,23.8h3.322L176.519,322.68,131.96,348.414Z" transform="translate(86.141 210.638)" fill="url(#linear-gradient-32)"/>
          <path id="Path_65" data-name="Path 65" d="M193.239,348.414l41.237-23.8,41.22,23.8h3.339L234.475,322.68,189.9,348.414Z" transform="translate(123.962 210.638)" fill="url(#linear-gradient-33)"/>
          <path id="Path_70" data-name="Path 70" d="M53.184,61.679a2.644,2.644,0,1,0-2.644-2.644,2.644,2.644,0,0,0,2.644,2.644Z" transform="translate(66.295 94.195)" fill="url(#linear-gradient-34)"/>
          <path id="Path_71" data-name="Path 71" d="M185.706,7.273a.446.446,0,1,0-.446-.446A.446.446,0,0,0,185.706,7.273Z" transform="translate(154.237 61.549)" fill="url(#linear-gradient-35)"/>
          <path id="Path_72" data-name="Path 72" d="M209.764,16.42a5.074,5.074,0,1,0,5.074,5.074,5.074,5.074,0,0,0-5.074-5.074Z" transform="translate(166.921 68.103)" fill="url(#linear-gradient-36)"/>
          <path id="Path_73" data-name="Path 73" d="M209.013,49.587a3.173,3.173,0,1,0-3.173-3.173A3.173,3.173,0,0,0,209.013,49.587Z" transform="translate(167.671 85.611)" fill="url(#linear-gradient-37)"/>
          <path id="Path_74" data-name="Path 74" d="M231.136,61.979a2.859,2.859,0,1,0-2.876-2.843,2.859,2.859,0,0,0,2.876,2.843Z" transform="translate(182.306 94.11)" fill="url(#linear-gradient-38)"/>
          <circle id="Ellipse_1" data-name="Ellipse 1" cx="1.471" cy="1.471" r="1.471" transform="translate(411.955 66.904)" fill="url(#linear-gradient-39)"/>
          <path id="Path_75" data-name="Path 75" d="M253.369,23.548a2.909,2.909,0,1,0-2.909-2.909A2.909,2.909,0,0,0,253.369,23.548Z" transform="translate(196.798 68.958)" fill="url(#linear-gradient-40)"/>
          <path id="Path_76" data-name="Path 76" d="M254.237,42.07a5.107,5.107,0,1,0,5.107,5.107,5.107,5.107,0,0,0-5.107-5.107Z" transform="translate(195.93 84.847)" fill="url(#linear-gradient-41)"/>
          <path id="Path_77" data-name="Path 77" d="M275.3,9.7a2.149,2.149,0,1,0-2.149-2.149A2.149,2.149,0,0,0,275.3,9.7Z" transform="translate(211.61 60.909)" fill="url(#linear-gradient-42)"/>
          <path id="Path_84" data-name="Path 84" d="M31.216,94.46a3.306,3.306,0,1,0,3.306,3.306A3.306,3.306,0,0,0,31.216,94.46Z" transform="translate(51.522 119.046)" fill="url(#linear-gradient-43)"/>
          <circle id="Ellipse_5" data-name="Ellipse 5" cx="2.132" cy="2.132" r="2.132" transform="translate(43.848 193.54)" fill="url(#linear-gradient-44)"/>
          <path id="Path_85" data-name="Path 85" d="M8.333,60.306A1.653,1.653,0,1,0,6.68,58.653,1.653,1.653,0,0,0,8.333,60.306Z" transform="translate(37.664 94.593)" fill="url(#linear-gradient-45)"/>
          <circle id="Ellipse_6" data-name="Ellipse 6" cx="4.942" cy="4.942" r="4.942" transform="translate(77.78 127.082)" fill="url(#linear-gradient-46)"/>
          <path id="Path_86" data-name="Path 86" d="M53.778,89.47a4.148,4.148,0,1,0-2.939-1.221A4.165,4.165,0,0,0,53.778,89.47Z" transform="translate(65.701 110.351)" fill="url(#linear-gradient-47)"/>
          <path id="Path_87" data-name="Path 87" d="M231.514,89.029a3.834,3.834,0,1,0-3.834-3.834,3.834,3.834,0,0,0,3.834,3.834Z" transform="translate(181.928 110.494)" fill="url(#linear-gradient-48)"/>
          <path id="Path_88" data-name="Path 88" d="M275.227,56.81a1.95,1.95,0,1,0,1.4.571,1.967,1.967,0,0,0-1.4-.571Z" transform="translate(211.682 94.469)" fill="url(#linear-gradient-49)"/>
          <path id="Path_98" data-name="Path 98" d="M31.438,171.17a3.867,3.867,0,1,0,3.867,3.867,3.867,3.867,0,0,0-3.867-3.867Z" transform="translate(51.301 169.12)" fill="url(#linear-gradient-50)"/>
          <circle id="Ellipse_11" data-name="Ellipse 11" cx="0.347" cy="0.347" r="0.347" transform="translate(45.633 322.606)" fill="url(#linear-gradient-51)"/>
          <circle id="Ellipse_12" data-name="Ellipse 12" cx="3.091" cy="3.091" r="3.091" transform="translate(42.89 277.435)" fill="url(#linear-gradient-52)"/>
          <path id="Path_99" data-name="Path 99" d="M30.961,120.56a2.661,2.661,0,1,0,2.661,2.661,2.661,2.661,0,0,0-2.661-2.661Z" transform="translate(51.777 136.083)" fill="url(#linear-gradient-53)"/>
          <path id="Path_100" data-name="Path 100" d="M72.92,174.457a2.413,2.413,0,1,0,2.4-2.4A2.413,2.413,0,0,0,72.92,174.457Z" transform="translate(80.904 169.701)" fill="url(#linear-gradient-54)"/>
          <path id="Path_105" data-name="Path 105" d="M53.994,167.218a4.677,4.677,0,1,0-3.318-1.364A4.694,4.694,0,0,0,53.994,167.218Z" transform="translate(65.485 160.412)" fill="url(#linear-gradient-55)"/>
          <path id="Path_106" data-name="Path 106" d="M75.917,204.736A3.983,3.983,0,1,0,72,200.753a3.983,3.983,0,0,0,3.917,3.983Z" transform="translate(80.303 185.832)" fill="url(#linear-gradient-56)"/>
          <path id="Path_107" data-name="Path 107" d="M121.5,199.931a1.884,1.884,0,1,0-.552,1.349,1.9,1.9,0,0,0,.552-1.349Z" transform="translate(110.135 186.654)" fill="url(#linear-gradient-57)"/>
          <path id="Path_108" data-name="Path 108" d="M142.519,217.128a3.653,3.653,0,1,0-2.593-1.064A3.669,3.669,0,0,0,142.519,217.128Z" transform="translate(123.942 194.331)" fill="url(#linear-gradient-58)"/>
          <path id="Path_109" data-name="Path 109" d="M168.224,200.577a3.52,3.52,0,1,0-1.025,2.5A3.537,3.537,0,0,0,168.224,200.577Z" transform="translate(138.499 186.008)" fill="url(#linear-gradient-59)"/>
          <path id="Path_110" data-name="Path 110" d="M187.182,217.784a4.132,4.132,0,1,0-2.966-1.2A4.132,4.132,0,0,0,187.182,217.784Z" transform="translate(152.762 194.155)" fill="url(#linear-gradient-60)"/>
          <circle id="Ellipse_18" data-name="Ellipse 18" cx="2.38" cy="2.38" r="2.38" transform="translate(80.342 469.075)" fill="url(#linear-gradient-61)"/>
          <circle id="Ellipse_19" data-name="Ellipse 19" cx="1.901" cy="1.901" r="1.901" transform="translate(44.08 448.332)" fill="url(#linear-gradient-62)"/>
          <path id="Path_111" data-name="Path 111" d="M7.13,212.359a.909.909,0,0,0,.909.892.892.892,0,0,0,.892-.892.9.9,0,1,0-1.8,0Z" transform="translate(37.958 195.414)" fill="url(#linear-gradient-63)"/>
          <circle id="Ellipse_20" data-name="Ellipse 20" cx="3.735" cy="3.735" r="3.735" transform="translate(78.986 382.849)" fill="url(#linear-gradient-64)"/>
          <path id="Path_112" data-name="Path 112" d="M50.28,238.9a3.074,3.074,0,1,0,3.074-3.074A3.074,3.074,0,0,0,50.28,238.9Z" transform="translate(66.125 211.329)" fill="url(#linear-gradient-65)"/>
          <path id="Path_113" data-name="Path 113" d="M55.091,212.836a2.116,2.116,0,1,0-2.116,2.116A2.116,2.116,0,0,0,55.091,212.836Z" transform="translate(66.504 194.938)" fill="url(#linear-gradient-66)"/>
          <path id="Path_114" data-name="Path 114" d="M97.22,211a1.653,1.653,0,1,0,1.222.454A1.653,1.653,0,0,0,97.22,211Z" transform="translate(95.742 195.12)" fill="url(#linear-gradient-67)"/>
          <path id="Path_115" data-name="Path 115" d="M117.07,251.669a2.909,2.909,0,1,0,2.909-2.909,2.909,2.909,0,0,0-2.909,2.909Z" transform="translate(109.724 219.769)" fill="url(#linear-gradient-68)"/>
          <path id="Path_116" data-name="Path 116" d="M98.258,235.15a4.2,4.2,0,1,0,4.2,4.2,4.2,4.2,0,0,0-4.2-4.2Z" transform="translate(94.704 210.885)" fill="url(#linear-gradient-69)"/>
          <path id="Path_117" data-name="Path 117" d="M187.319,244.007a4.529,4.529,0,1,0-4.529-4.529A4.529,4.529,0,0,0,187.319,244.007Z" transform="translate(152.625 210.755)" fill="url(#linear-gradient-70)"/>
          <path id="Path_124" data-name="Path 124" d="M72.69,251.617a2.793,2.793,0,1,0,2.777-2.777,2.793,2.793,0,0,0-2.777,2.777Z" transform="translate(80.754 219.822)" fill="url(#linear-gradient-71)"/>
          <path id="Path_125" data-name="Path 125" d="M76.172,282.6a4.562,4.562,0,1,0-4.562-4.562,4.562,4.562,0,0,0,4.562,4.562Z" transform="translate(80.049 235.906)" fill="url(#linear-gradient-72)"/>
          <circle id="Ellipse_21" data-name="Ellipse 21" cx="4.76" cy="4.76" r="4.76" transform="translate(261.684 445.473)" fill="url(#linear-gradient-73)"/>
          <circle id="Ellipse_22" data-name="Ellipse 22" cx="1.752" cy="1.752" r="1.752" transform="translate(301.434 469.703)" fill="url(#linear-gradient-74)"/>
          <path id="Path_126" data-name="Path 126" d="M186.921,293.931a3.5,3.5,0,1,0-2.506-1.038A3.52,3.52,0,0,0,186.921,293.931Z" transform="translate(153.023 244.66)" fill="url(#linear-gradient-75)"/>
          <circle id="Ellipse_23" data-name="Ellipse 23" cx="5.372" cy="5.372" r="5.372" transform="translate(297.814 508.51)" fill="url(#linear-gradient-76)"/>
          <path id="Path_130" data-name="Path 130" d="M8.658,289.323a.711.711,0,1,0-.316.7.711.711,0,0,0,.316-.7Z" transform="translate(38.033 245.714)" fill="url(#linear-gradient-77)"/>
          <path id="Path_131" data-name="Path 131" d="M30.824,274.81a2.3,2.3,0,1,0,2.281,2.281A2.3,2.3,0,0,0,30.824,274.81Z" transform="translate(51.914 236.774)" fill="url(#linear-gradient-78)"/>
          <path id="Path_132" data-name="Path 132" d="M54.451,285.49a5.851,5.851,0,1,0,5.851,5.8,5.851,5.851,0,0,0-5.851-5.8Z" transform="translate(65.028 243.746)" fill="url(#linear-gradient-79)"/>
          <path id="Path_133" data-name="Path 133" d="M98,286.89a3.537,3.537,0,1,0,3.537,3.487A3.537,3.537,0,0,0,98,286.89Z" transform="translate(94.965 244.66)" fill="url(#linear-gradient-80)"/>
          <path id="Path_134" data-name="Path 134" d="M120.416,281.816a4.033,4.033,0,1,0-4.016-4.033,4.033,4.033,0,0,0,4.016,4.033Z" transform="translate(109.287 236.082)" fill="url(#linear-gradient-81)"/>
          <path id="Path_135" data-name="Path 135" d="M147.493,290.828a4.611,4.611,0,1,0-4.595,4.595A4.611,4.611,0,0,0,147.493,290.828Z" transform="translate(123.563 244.209)" fill="url(#linear-gradient-82)"/>
        </g>
        <g id="Group_2" data-name="Group 2" transform="translate(-33.303 -57.384)" opacity="0.2">
          <path id="Path_138" data-name="Path 138" d="M6.1,0V44.889L0,48.41v.446L6.4,45.17l.1-.05V0Z" fill="url(#linear-gradient-83)"/>
          <path id="Path_139" data-name="Path 139" d="M310.456,0V44.889L265.815,70.673,221.157,44.889V0h-.4V45.121l44.956,25.949.1.05L310.754,45.17l.1-.05V0Z" transform="translate(144.107)" fill="url(#linear-gradient-84)"/>
          <path id="Path_148" data-name="Path 148" d="M6.4,121.14l-.1-.05L0,124.726v.446l6.3-3.636L50.939,147.32v51.567L6.3,224.653,0,221.017v.463l6.2,3.57.1.066,44.939-25.965.1-.05V147.088Z" transform="translate(0 79.045)" fill="url(#linear-gradient-85)"/>
          <path id="Path_151" data-name="Path 151" d="M0,181.55v.463l6.1,3.52v51.55L0,240.6v.463l6.4-3.7.1-.05V185.3Z" transform="translate(0 118.512)" fill="url(#linear-gradient-86)"/>
          <path id="Path_152" data-name="Path 152" d="M28.595,237.36h-.1L-16.46,211.411V159.349h.1L28.595,133.4h0L73.55,159.349v52.013h-.1ZM-16.03,211.13l44.625,25.783L73.22,211.13V159.58L28.595,133.8-16.03,159.58Z" transform="translate(22.559 144.465)" fill="url(#linear-gradient-87)"/>
          <path id="Path_153" data-name="Path 153" d="M82.816,237.36h0L37.86,211.411V159.349h.1L82.9,133.4H83l44.956,25.949v52.013h-.1ZM38.191,211.13l44.625,25.783,44.625-25.783V159.58L82.816,133.8,38.191,159.58Z" transform="translate(58.018 144.465)" fill="url(#linear-gradient-88)"/>
          <path id="Path_154" data-name="Path 154" d="M137.118,237.36h-.1L92.08,211.411V159.349h.1L137.118,133.4h.1l44.956,25.949v52.013h-.1ZM92.493,211.13l44.625,25.783,44.625-25.783V159.58L137.118,133.8,92.493,159.58Z" transform="translate(93.411 144.465)" fill="url(#linear-gradient-89)"/>
          <path id="Path_155" data-name="Path 155" d="M6.4,215.14l-.1-.05L0,218.71v.463l6.3-3.636L50.939,241.32v51.55L6.3,318.653,0,315.017v.446l6.2,3.587.1.05,44.939-25.949.1-.05V241.088Z" transform="translate(0 140.406)" fill="url(#linear-gradient-90)"/>
          <path id="Path_156" data-name="Path 156" d="M55.718,284.36h-.1L10.68,258.411V206.349h.1L55.718,180.4h.1l44.939,25.949v52.013h-.1ZM11.093,258.13l44.625,25.783,44.625-25.783V206.563L55.718,180.8,11.093,206.563Z" transform="translate(40.275 175.146)" fill="url(#linear-gradient-91)"/>
          <path id="Path_157" data-name="Path 157" d="M109.956,284.36h-.1L65,258.362V206.349h.1L110.038,180.4h.1l44.939,25.949v52.013h-.1ZM65.331,258.13l44.625,25.783,44.625-25.783V206.563L109.956,180.8,65.331,206.563Z" transform="translate(75.734 175.146)" fill="url(#linear-gradient-92)"/>
          <path id="Path_158" data-name="Path 158" d="M0,275.55V276l6.1,3.52v51.567L0,334.6v.446l6.4-3.686.1-.05V279.3Z" transform="translate(0 179.873)" fill="url(#linear-gradient-93)"/>
          <path id="Path_159" data-name="Path 159" d="M28.595,331.36h-.1L-16.46,305.411V253.349h.1L28.595,227.4h0L73.55,253.349v52h-.1ZM-16.03,305.13l44.625,25.783L73.22,305.13V253.563L28.595,227.78-16.03,253.563Z" transform="translate(22.559 205.826)" fill="url(#linear-gradient-94)"/>
          <path id="Path_160" data-name="Path 160" d="M82.816,331.36h0L37.86,305.411V253.349h.1L82.9,227.4H83l44.956,25.949v52h-.1ZM38.191,305.13l44.625,25.783,44.625-25.783V253.563L82.816,227.78,38.191,253.563Z" transform="translate(58.018 205.826)" fill="url(#linear-gradient-95)"/>
          <path id="Path_161" data-name="Path 161" d="M137.118,331.36h-.1L92.08,305.411V253.349h.1L137.118,227.4h.1l44.956,25.949v52h-.1ZM92.493,305.13l44.625,25.783,44.625-25.783V253.563L137.118,227.78,92.493,253.563Z" transform="translate(93.411 205.826)" fill="url(#linear-gradient-96)"/>
          <path id="Path_164" data-name="Path 164" d="M6.4,309.146l-.1-.066L0,312.716v.446l6.3-3.636L50.939,335.31v14.958h.4V335.078Z" transform="translate(0 201.76)" fill="url(#linear-gradient-97)"/>
          <path id="Path_165" data-name="Path 165" d="M31.217,350.267V335.31l44.658-25.783,44.642,25.783v14.958h.4V335.078L75.957,309.146l-.083-.066L30.919,335.029l-.1.05v15.189Z" transform="translate(20.119 201.76)" fill="url(#linear-gradient-98)"/>
          <path id="Path_166" data-name="Path 166" d="M85.487,350.267V335.31l44.642-25.783,44.658,25.783v14.958h.4V335.078l-44.956-25.932-.1-.066L85.189,335.029l-.1.05v15.189Z" transform="translate(55.545 201.76)" fill="url(#linear-gradient-99)"/>
          <path id="Path_167" data-name="Path 167" d="M139.757,350.267V335.31L184.4,309.526l44.658,25.783v14.958h.4V335.078L184.5,309.146l-.1-.066-44.939,25.949-.1.05v15.189Z" transform="translate(90.971 201.76)" fill="url(#linear-gradient-100)"/>
          <path id="Path_172" data-name="Path 172" d="M0,50v2.347l4.694,2.711v66.309L0,124.077v2.347l6.727-3.884V53.884Z" transform="translate(0 32.639)" fill="url(#linear-gradient-101)"/>
          <path id="Path_173" data-name="Path 173" d="M42.17,134.173l-59.5-34.328V31.188L42.17-3.14l59.5,34.328V99.845Zm-57.434-35.5L42.17,131.826,99.6,98.671V32.362L42.17-.81-15.264,32.362Z" transform="translate(21.991 55.335)" fill="url(#linear-gradient-102)"/>
          <path id="Path_174" data-name="Path 174" d="M428.522,51.89l-1.322.76v68.656l1.322.76Z" transform="translate(278.867 33.873)" fill="url(#linear-gradient-103)"/>
          <path id="Path_175" data-name="Path 175" d="M5.719,92.83,0,96.119v2.347l5.719-3.289,57.417,33.155v66.309L5.719,227.812,0,224.507v2.347l5.719,3.289,59.45-34.328V127.158Z" transform="translate(0 60.597)" fill="url(#linear-gradient-104)"/>
          <path id="Path_176" data-name="Path 176" d="M77.5,195.423,18,161.095V92.438L77.5,58.11,137,92.438v68.656Zm-57.368-35.5L77.5,193.092l57.434-33.171V93.612L77.5,60.44,20.132,93.612Z" transform="translate(45.053 95.317)" fill="url(#linear-gradient-105)"/>
          <path id="Path_177" data-name="Path 177" d="M0,172.5v2.347l4.694,2.711v66.326L0,246.577v2.347l6.727-3.884V176.384Z" transform="translate(0 112.604)" fill="url(#linear-gradient-106)"/>
          <path id="Path_178" data-name="Path 178" d="M42.17,256.673l-59.5-34.328V153.688l59.5-34.328,59.5,34.328v68.656Zm-57.434-35.436L42.17,254.293,99.6,221.237V154.862L42.17,121.707l-57.434,33.155Z" transform="translate(21.991 135.3)" fill="url(#linear-gradient-107)"/>
          <path id="Path_180" data-name="Path 180" d="M5.719,215.33,0,218.619v2.347l5.719-3.289,57.417,33.155v66.326L5.719,350.312,0,347.007v2.347l5.719,3.306,59.45-34.345V249.658Z" transform="translate(0 140.563)" fill="url(#linear-gradient-108)"/>
          <path id="Path_181" data-name="Path 181" d="M77.5,317.939,18,283.595V214.938L77.5,180.61,137,214.938v68.656Zm-57.368-35.5L77.5,315.592l57.434-33.155V216.112L77.5,182.907l-57.368,33.2Z" transform="translate(45.053 175.283)" fill="url(#linear-gradient-109)"/>
          <path id="Path_184" data-name="Path 184" d="M0,295v2.347l4.694,2.711v59.4H6.727V298.884Z" transform="translate(0 192.569)" fill="url(#linear-gradient-110)"/>
          <path id="Path_185" data-name="Path 185" d="M4.873,371.483v-59.4l57.434-33.155,57.434,33.155v59.4h2.033V310.908L62.307,276.58,2.84,310.908v60.574Z" transform="translate(1.854 180.545)" fill="url(#linear-gradient-111)"/>
          <path id="Path_186" data-name="Path 186" d="M75.6,371.483v-59.4l57.434-33.155,57.417,33.155v59.4h2.033V310.908l-59.45-34.328L73.57,310.908v60.574Z" transform="translate(48.025 180.545)" fill="url(#linear-gradient-112)"/>
          <path id="Path_187" data-name="Path 187" d="M146.323,371.483v-59.4l57.434-33.155,57.434,33.155v59.4h2.033V310.908L203.757,276.58,144.29,310.908v60.574Z" transform="translate(94.189 180.545)" fill="url(#linear-gradient-113)"/>
          <path id="Path_188" data-name="Path 188" d="M217.053,371.483v-59.4l57.434-33.155,57.434,33.155v59.4h2.033V310.908L274.487,276.58,215.02,310.908v60.574Z" transform="translate(140.36 180.545)" fill="url(#linear-gradient-114)"/>
          <path id="Path_192" data-name="Path 192" d="M-14.336-.428A5.058,5.058,0,0,0-10.749-1.9,5.057,5.057,0,0,0-9.262-5.486a5.058,5.058,0,0,0-1.481-3.593,5.058,5.058,0,0,0-3.593-1.481A5.074,5.074,0,0,0-19.41-5.486,5.074,5.074,0,0,0-14.336-.428Z" transform="translate(20.633 50.491)" fill="url(#linear-gradient-115)"/>
          <circle id="Ellipse_24" data-name="Ellipse 24" cx="4.677" cy="4.677" r="4.677" transform="translate(360.388 40.328)" fill="url(#linear-gradient-116)"/>
          <path id="Path_193" data-name="Path 193" d="M256.756-1.3a4.429,4.429,0,0,0,4.429-4.429,4.43,4.43,0,0,0-1.292-3.143,4.429,4.429,0,0,0-3.138-1.3,4.429,4.429,0,0,0-3.149,1.3,4.43,4.43,0,0,0-1.3,3.149,4.43,4.43,0,0,0,1.3,3.138A4.429,4.429,0,0,0,256.756-1.3Z" transform="translate(198.006 50.739)" fill="url(#linear-gradient-117)"/>
          <path id="Path_195" data-name="Path 195" d="M233.057,9.632a3.719,3.719,0,1,0-1.083,2.64A3.719,3.719,0,0,0,233.057,9.632Z" transform="translate(180.583 61.255)" fill="url(#linear-gradient-118)"/>
          <path id="Path_197" data-name="Path 197" d="M9,103.332a2.942,2.942,0,1,0,2.942-2.942A2.942,2.942,0,0,0,9,103.332Z" transform="translate(39.178 122.917)" fill="url(#linear-gradient-119)"/>
          <path id="Path_202" data-name="Path 202" d="M-14.081,94.569a5.719,5.719,0,0,0,5.719-5.719A5.719,5.719,0,0,0-9.99,84.721,5.719,5.719,0,0,0-14.081,83a5.719,5.719,0,0,0-4.067,1.7A5.718,5.718,0,0,0-19.8,88.785a5.719,5.719,0,0,0,1.651,4.086,5.719,5.719,0,0,0,4.067,1.7Z" transform="translate(20.378 111.565)" fill="url(#linear-gradient-120)"/>
          <path id="Path_203" data-name="Path 203" d="M12.719,140.278a4.859,4.859,0,1,0-4.859-4.859,4.859,4.859,0,0,0,4.859,4.859Z" transform="translate(38.434 142.611)" fill="url(#linear-gradient-121)"/>
          <path id="Path_204" data-name="Path 204" d="M68.288,134.414a2.3,2.3,0,1,0-.673,1.641A2.314,2.314,0,0,0,68.288,134.414Z" transform="translate(74.859 143.616)" fill="url(#linear-gradient-122)"/>
          <circle id="Ellipse_33" data-name="Ellipse 33" cx="4.462" cy="4.462" r="4.462" transform="translate(181.211 299.467)" fill="url(#linear-gradient-123)"/>
          <path id="Path_205" data-name="Path 205" d="M125.348,135.2a4.314,4.314,0,1,0-4.314,4.314A4.314,4.314,0,0,0,125.348,135.2Z" transform="translate(109.496 142.827)" fill="url(#linear-gradient-124)"/>
          <circle id="Ellipse_34" data-name="Ellipse 34" cx="5.041" cy="5.041" r="5.041" transform="translate(270.328 298.888)" fill="url(#linear-gradient-125)"/>
          <path id="Path_206" data-name="Path 206" d="M-18.61,181.982a3.752,3.752,0,0,0,3.752,3.752,3.752,3.752,0,0,0,2.664-1.093,3.752,3.752,0,0,0,1.1-2.659,3.752,3.752,0,0,0-1.1-2.659,3.752,3.752,0,0,0-2.664-1.093A3.752,3.752,0,0,0-18.61,181.982Z" transform="translate(21.155 173.729)" fill="url(#linear-gradient-126)"/>
          <path id="Path_207" data-name="Path 207" d="M-12.743,150.188a2.578,2.578,0,0,0-2.578-2.578,2.578,2.578,0,0,0-2.578,2.578,2.578,2.578,0,0,0,2.578,2.578,2.578,2.578,0,0,0,2.578-2.578Z" transform="translate(21.619 153.741)" fill="url(#linear-gradient-127)"/>
          <circle id="Ellipse_35" data-name="Ellipse 35" cx="2.116" cy="2.116" r="2.116" transform="translate(93.878 301.814)" fill="url(#linear-gradient-128)"/>
          <path id="Path_208" data-name="Path 208" d="M62.92,197.587a3.537,3.537,0,1,0,1.018-2.533,3.553,3.553,0,0,0-1.018,2.533Z" transform="translate(74.376 184.023)" fill="url(#linear-gradient-129)"/>
          <path id="Path_209" data-name="Path 209" d="M39.954,177.4a5.124,5.124,0,1,0,5.124,5.124,5.124,5.124,0,0,0-5.124-5.124Z" transform="translate(56.04 173.187)" fill="url(#linear-gradient-130)"/>
          <circle id="Ellipse_36" data-name="Ellipse 36" cx="5.52" cy="5.52" r="5.52" transform="translate(269.849 350.191)" fill="url(#linear-gradient-131)"/>
          <circle id="Ellipse_39" data-name="Ellipse 39" cx="3.405" cy="3.405" r="3.405" transform="translate(47.732 378.205)" fill="url(#linear-gradient-132)"/>
          <path id="Path_212" data-name="Path 212" d="M13,235.26a5.553,5.553,0,1,0-3.937-1.621A5.57,5.57,0,0,0,13,235.26Z" transform="translate(38.154 203.685)" fill="url(#linear-gradient-133)"/>
          <circle id="Ellipse_40" data-name="Ellipse 40" cx="5.818" cy="5.818" r="5.818" transform="translate(179.855 349.893)" fill="url(#linear-gradient-134)"/>
          <path id="Path_213" data-name="Path 213" d="M118,197.019a2.132,2.132,0,1,0,.619-1.518,2.149,2.149,0,0,0-.619,1.518Z" transform="translate(110.331 184.591)" fill="url(#linear-gradient-135)"/>
          <circle id="Ellipse_41" data-name="Ellipse 41" cx="4.281" cy="4.281" r="4.281" transform="translate(271.089 455.01)" fill="url(#linear-gradient-136)"/>
          <path id="Path_214" data-name="Path 214" d="M121.941,223.53a6.611,6.611,0,1,0,6.611,6.611A6.611,6.611,0,0,0,121.941,223.53Z" transform="translate(108.588 203.3)" fill="url(#linear-gradient-137)"/>
          <path id="Path_218" data-name="Path 218" d="M-13.853,238.85a7.107,7.107,0,0,0-6.3,3.834V249.3a7.14,7.14,0,0,0,6.3,3.835,7.123,7.123,0,0,0,5.081-2.08,7.124,7.124,0,0,0,2.092-5.076,7.124,7.124,0,0,0-2.1-5.055,7.123,7.123,0,0,0-5.069-2.069Z" transform="translate(20.15 213.3)" fill="url(#linear-gradient-138)"/>
          <path id="Path_219" data-name="Path 219" d="M12.021,294.441a3.091,3.091,0,1,0-3.091-3.091A3.091,3.091,0,0,0,12.021,294.441Z" transform="translate(39.133 245.554)" fill="url(#linear-gradient-139)"/>
          <path id="Path_220" data-name="Path 220" d="M40.332,283a6.1,6.1,0,1,0-6.082-6.082A6.1,6.1,0,0,0,40.332,283Z" transform="translate(55.661 234.157)" fill="url(#linear-gradient-140)"/>
          <path id="Path_221" data-name="Path 221" d="M39.634,240.56a4.3,4.3,0,1,0,3.049,1.253A4.314,4.314,0,0,0,39.634,240.56Z" transform="translate(56.36 214.417)" fill="url(#linear-gradient-141)"/>
          <path id="Path_222" data-name="Path 222" d="M67.018,234.387a4.958,4.958,0,1,0-4.958-4.958A4.958,4.958,0,0,0,67.018,234.387Z" transform="translate(73.815 203.913)" fill="url(#linear-gradient-142)"/>
          <path id="Path_223" data-name="Path 223" d="M100.029,245.379a5.6,5.6,0,1,0-1.635,3.972,5.619,5.619,0,0,0,1.635-3.972Z" transform="translate(91.264 213.894)" fill="url(#linear-gradient-143)"/>
          <path id="Path_224" data-name="Path 224" d="M121.073,296.316a4.4,4.4,0,1,0-3.125-1.288,4.413,4.413,0,0,0,3.125,1.288Z" transform="translate(109.457 245.051)" fill="url(#linear-gradient-144)"/>
          <circle id="Ellipse_42" data-name="Ellipse 42" cx="4.661" cy="4.661" r="4.661" transform="translate(270.708 506.411)" fill="url(#linear-gradient-145)"/>
          <path id="Path_226" data-name="Path 226" d="M-15.426,273.1a2.314,2.314,0,0,0-2.314,2.314,2.314,2.314,0,0,0,2.314,2.3,2.314,2.314,0,0,0,2.314-2.3,2.314,2.314,0,0,0-2.314-2.314Z" transform="translate(21.723 235.658)" fill="url(#linear-gradient-146)"/>
          <path id="Path_227" data-name="Path 227" d="M67.358,286.64a5.818,5.818,0,1,0,5.818,5.818,5.818,5.818,0,0,0-5.818-5.818Z" transform="translate(73.475 244.497)" fill="url(#linear-gradient-147)"/>
          <circle id="Ellipse_44" data-name="Ellipse 44" cx="2.595" cy="2.595" r="2.595" transform="translate(183.078 508.477)" fill="url(#linear-gradient-148)"/>
          <circle id="Ellipse_45" data-name="Ellipse 45" cx="3.438" cy="3.438" r="3.438" transform="translate(316.788 533.517)" fill="url(#linear-gradient-149)"/>
        </g>
      </g>
    </g>
  </g>
</svg>
